<svg version="1.1" xmlns="http://www.w3.org/2000/svg" xmlns:xlink="http://www.w3.org/1999/xlink" x="0px" y="0px"
	 viewBox="0 0 500 500" style="enable-background:new 0 0 500 500;" xml:space="preserve">
	<g id="BACKGROUND">
		<rect style="fill:#023477;" width="500" height="500"/>
	</g>
	<g id="OBJECTS">
		<g>
			<path style="fill:#DEC340;" d="M48.656,339.426c0-8.297,90.146-15.023,201.341-15.023c111.208,0,201.348,6.727,201.348,15.023
				c0,8.295-90.14,15.022-201.348,15.022C138.803,354.448,48.656,347.721,48.656,339.426z"/>
			<g>
				<rect x="296.733" y="172.982" style="fill:none;" width="178.744" height="170.594"/>
				<g>
					<defs>
						<rect id="SVGID_1_" x="162.151" y="172.982" width="200.254" height="168.184"/>
					</defs>
					<clipPath id="SVGID_00000100353421297529972270000016842003443815619217_">
						<use xlink:href="#SVGID_1_"  style="overflow:visible;"/>
					</clipPath>
					<g style="clip-path:url(#SVGID_00000100353421297529972270000016842003443815619217_);">
						<g>
							
								<ellipse transform="matrix(0.7071 -0.7071 0.7071 0.7071 -114.4184 264.6715)" style="fill:#5D5D5D;" cx="262.278" cy="270.451" rx="95.107" ry="95.107"/>
							<path style="fill:#4A4A4A;" d="M183.178,270.451c0-43.687,35.415-79.102,79.1-79.102c43.687,0,79.103,35.415,79.103,79.102
								c0,43.688-35.416,79.102-79.103,79.102C218.593,349.553,183.178,314.139,183.178,270.451z"/>
							<g>
								<g>
									<path style="fill:#767676;" d="M262.277,337.988c-37.24,0-67.535-30.297-67.535-67.537
										c0-37.239,30.295-67.535,67.535-67.535c37.241,0,67.537,30.296,67.537,67.535
										C329.814,307.691,299.519,337.988,262.277,337.988z M262.277,204.098c-36.587,0-66.353,29.767-66.353,66.354
										c0,36.589,29.767,66.355,66.353,66.355c36.59,0,66.357-29.767,66.357-66.355
										C328.634,233.864,298.867,204.098,262.277,204.098z"/>
								</g>
								<g>
									<path style="fill:#3F3F3F;" d="M262.277,337.222c-36.814,0-66.768-29.952-66.768-66.771
										c0-36.814,29.954-66.768,66.768-66.768c36.816,0,66.772,29.953,66.772,66.768
										C329.049,307.27,299.094,337.222,262.277,337.222z M262.277,204.275c-36.489,0-66.178,29.686-66.178,66.176
										c0,36.492,29.688,66.18,66.178,66.18c36.493,0,66.18-29.688,66.18-66.18C328.457,233.962,298.77,204.275,262.277,204.275z"
										/>
								</g>
							</g>
							<g>
								<g>
									<path style="fill:#767676;" d="M262.277,355.56c-46.93,0-85.106-38.18-85.106-85.109c0-46.929,38.177-85.105,85.106-85.105
										c46.931,0,85.108,38.177,85.108,85.105C347.386,317.381,309.208,355.56,262.277,355.56z M262.277,186.525
										c-46.276,0-83.927,37.65-83.927,83.926c0,46.278,37.65,83.928,83.927,83.928c46.279,0,83.929-37.649,83.929-83.928
										C346.206,224.176,308.557,186.525,262.277,186.525z"/>
								</g>
								<g>
									<path style="fill:#3F3F3F;" d="M262.277,354.671c-46.435,0-84.217-37.78-84.217-84.22c0-46.437,37.781-84.217,84.217-84.217
										c46.439,0,84.218,37.78,84.218,84.217C346.495,316.891,308.716,354.671,262.277,354.671z M262.277,186.828
										c-46.111,0-83.626,37.513-83.626,83.623c0,46.113,37.515,83.627,83.626,83.627c46.114,0,83.628-37.514,83.628-83.627
										C345.905,224.341,308.392,186.828,262.277,186.828z"/>
								</g>
							</g>
							<g>
								<g>
									<path style="fill:#4A4A4A;" d="M262.26,356.404l-7.737,8.815c1.87,0.15,3.758,0.245,5.658,0.288l5.658-9.103H262.26z"/>
									<path style="fill:#4A4A4A;" d="M270.476,356.404l-6.712,9.117c0.659-0.01,1.315-0.027,1.969-0.052l5.639-9.065H270.476z"/>
								</g>
								<g>
									<path style="fill:#4A4A4A;" d="M284.505,353.477l-5.191,10.518c1.847-0.338,3.691-0.731,5.54-1.187l3.11-10.257
										L284.505,353.477z"/>
									<path style="fill:#4A4A4A;" d="M292.442,351.351l-4.123,10.546c0.632-0.18,1.262-0.367,1.889-0.559l3.099-10.218
										L292.442,351.351z"/>
								</g>
								<g>
									<path style="fill:#4A4A4A;" d="M305.235,344.895l-2.292,11.502c1.695-0.805,3.375-1.662,5.044-2.578l0.351-10.714
										L305.235,344.895z"/>
									<path style="fill:#4A4A4A;" d="M312.352,340.785l-1.254,11.255c0.564-0.337,1.124-0.682,1.68-1.027l0.349-10.674
										L312.352,340.785z"/>
								</g>
								<g>
									<path style="fill:#4A4A4A;" d="M323.039,331.238l0.764,11.704c1.428-1.216,2.829-2.48,4.202-3.797l-2.435-10.438
										L323.039,331.238z"/>
									<path style="fill:#4A4A4A;" d="M328.85,325.428l1.702,11.196c0.456-0.473,0.909-0.948,1.353-1.429l-2.425-10.398
										L328.85,325.428z"/>
								</g>
								<g>
									<path style="fill:#4A4A4A;" d="M336.701,313.44l3.765,11.108c1.068-1.544,2.093-3.129,3.079-4.757l-5.054-9.452
										L336.701,313.44z"/>
									<path style="fill:#4A4A4A;" d="M340.81,306.324l4.54,10.373c0.319-0.572,0.633-1.15,0.939-1.73l-5.035-9.416L340.81,306.324
										z"/>
								</g>
								<g>
									<path style="fill:#4A4A4A;" d="M345.291,292.713l6.512,9.756c0.632-1.769,1.212-3.566,1.743-5.394l-7.329-7.819
										L345.291,292.713z"/>
									<path style="fill:#4A4A4A;" d="M347.417,284.777l7.071,8.843c0.161-0.637,0.314-1.274,0.459-1.915l-7.302-7.791
										L347.417,284.777z"/>
								</g>
								<g>
									<path style="fill:#4A4A4A;" d="M348.222,270.469l8.817,7.736c0.151-1.871,0.247-3.755,0.287-5.658l-9.103-5.659
										L348.222,270.469z"/>
									<path style="fill:#4A4A4A;" d="M348.222,262.252l9.12,6.713c-0.011-0.656-0.026-1.314-0.053-1.968l-9.068-5.637
										L348.222,262.252z"/>
								</g>
								<g>
									<path style="fill:#4A4A4A;" d="M345.297,248.223l10.52,5.192c-0.34-1.846-0.735-3.692-1.188-5.541l-10.257-3.109
										L345.297,248.223z"/>
									<path style="fill:#4A4A4A;" d="M343.17,240.285l10.546,4.125c-0.178-0.631-0.365-1.262-0.561-1.887l-10.217-3.1
										L343.17,240.285z"/>
								</g>
								<g>
									<path style="fill:#4A4A4A;" d="M336.715,227.491l11.502,2.293c-0.805-1.694-1.665-3.374-2.58-5.042l-10.712-0.35
										L336.715,227.491z"/>
									<path style="fill:#4A4A4A;" d="M332.604,220.376l11.255,1.256c-0.335-0.563-0.68-1.125-1.03-1.681l-10.671-0.345
										L332.604,220.376z"/>
								</g>
								<g>
									<path style="fill:#4A4A4A;" d="M323.057,209.69l11.707-0.763c-1.216-1.43-2.482-2.83-3.798-4.205l-10.439,2.436
										L323.057,209.69z"/>
									<path style="fill:#4A4A4A;" d="M317.248,203.879l11.194-1.698c-0.469-0.459-0.946-0.911-1.429-1.356l-10.397,2.426
										L317.248,203.879z"/>
								</g>
								<g>
									<path style="fill:#4A4A4A;" d="M305.259,196.027l11.111-3.765c-1.546-1.065-3.131-2.091-4.759-3.077l-9.451,5.054
										L305.259,196.027z"/>
									<path style="fill:#4A4A4A;" d="M298.144,191.92l10.375-4.54c-0.574-0.32-1.151-0.633-1.732-0.94l-9.416,5.034
										L298.144,191.92z"/>
								</g>
								<g>
									<path style="fill:#4A4A4A;" d="M284.53,187.44l9.759-6.514c-1.77-0.631-3.565-1.21-5.393-1.741l-7.822,7.325L284.53,187.44z
										"/>
									<path style="fill:#4A4A4A;" d="M276.595,185.311l8.845-7.067c-0.634-0.161-1.274-0.314-1.914-0.46l-7.791,7.299
										L276.595,185.311z"/>
								</g>
								<g>
									<path style="fill:#4A4A4A;" d="M262.287,184.508l7.739-8.816c-1.873-0.152-3.756-0.248-5.659-0.288l-5.661,9.103
										L262.287,184.508z"/>
									<path style="fill:#4A4A4A;" d="M254.071,184.506l6.713-9.115c-0.655,0.007-1.313,0.025-1.969,0.05l-5.638,9.067
										L254.071,184.506z"/>
								</g>
								<g>
									<path style="fill:#4A4A4A;" d="M240.041,187.434l5.195-10.52c-1.848,0.34-3.692,0.732-5.541,1.188l-3.11,10.258
										L240.041,187.434z"/>
									<path style="fill:#4A4A4A;" d="M232.105,189.56l4.124-10.546c-0.631,0.178-1.26,0.366-1.888,0.561l-3.099,10.216
										L232.105,189.56z"/>
								</g>
								<g>
									<path style="fill:#4A4A4A;" d="M219.311,196.017l2.295-11.504c-1.696,0.805-3.375,1.66-5.043,2.58l-0.351,10.714
										L219.311,196.017z"/>
									<path style="fill:#4A4A4A;" d="M212.196,200.123l1.256-11.252c-0.565,0.336-1.124,0.68-1.68,1.029l-0.349,10.67
										L212.196,200.123z"/>
								</g>
								<g>
									<path style="fill:#4A4A4A;" d="M201.511,209.671l-0.763-11.702c-1.433,1.214-2.829,2.477-4.201,3.795l2.431,10.439
										L201.511,209.671z"/>
									<path style="fill:#4A4A4A;" d="M195.7,215.482l-1.7-11.194c-0.459,0.472-0.907,0.946-1.356,1.429l2.426,10.396
										L195.7,215.482z"/>
								</g>
								<g>
									<path style="fill:#4A4A4A;" d="M187.849,227.473l-3.764-11.112c-1.069,1.546-2.094,3.127-3.078,4.757l5.051,9.453
										L187.849,227.473z"/>
									<path style="fill:#4A4A4A;" d="M183.741,234.586l-4.539-10.373c-0.322,0.572-0.634,1.15-0.941,1.73l5.035,9.416
										L183.741,234.586z"/>
								</g>
								<g>
									<path style="fill:#4A4A4A;" d="M179.261,248.198l-6.513-9.756c-0.633,1.767-1.213,3.563-1.742,5.39l7.327,7.823
										L179.261,248.198z"/>
									<path style="fill:#4A4A4A;" d="M177.134,256.133l-7.07-8.842c-0.161,0.636-0.312,1.273-0.459,1.914l7.297,7.793
										L177.134,256.133z"/>
								</g>
								<g>
									<path style="fill:#4A4A4A;" d="M176.33,270.443l-8.816-7.738c-0.154,1.87-0.249,3.753-0.289,5.654l9.104,5.662
										L176.33,270.443z"/>
									<path style="fill:#4A4A4A;" d="M176.329,278.657l-9.12-6.713c0.009,0.657,0.029,1.314,0.051,1.968l9.067,5.64
										L176.329,278.657z"/>
								</g>
								<g>
									<path style="fill:#4A4A4A;" d="M179.255,292.689l-10.52-5.196c0.336,1.848,0.732,3.694,1.186,5.541l10.258,3.113
										L179.255,292.689z"/>
									<path style="fill:#4A4A4A;" d="M181.38,300.623l-10.544-4.124c0.179,0.632,0.367,1.259,0.557,1.889l10.216,3.101
										L181.38,300.623z"/>
								</g>
								<g>
									<path style="fill:#4A4A4A;" d="M187.838,313.419l-11.507-2.296c0.804,1.696,1.665,3.376,2.58,5.042l10.713,0.353
										L187.838,313.419z"/>
									<path style="fill:#4A4A4A;" d="M191.945,320.532l-11.255-1.254c0.337,0.564,0.684,1.121,1.029,1.681l10.67,0.348
										L191.945,320.532z"/>
								</g>
								<g>
									<path style="fill:#4A4A4A;" d="M201.494,331.219l-11.709,0.76c1.217,1.431,2.481,2.833,3.797,4.205l10.44-2.432
										L201.494,331.219z"/>
									<path style="fill:#4A4A4A;" d="M207.303,337.029l-11.197,1.701c0.473,0.459,0.951,0.906,1.431,1.355l10.398-2.422
										L207.303,337.029z"/>
								</g>
								<g>
									<path style="fill:#4A4A4A;" d="M219.294,344.881l-11.115,3.766c1.546,1.064,3.13,2.091,4.756,3.076l9.457-5.052
										L219.294,344.881z"/>
									<path style="fill:#4A4A4A;" d="M226.406,348.985l-10.375,4.543c0.575,0.321,1.152,0.631,1.731,0.941l9.42-5.031
										L226.406,348.985z"/>
								</g>
								<g>
									<path style="fill:#4A4A4A;" d="M240.021,353.469l-9.762,6.514c1.77,0.629,3.564,1.211,5.391,1.742l7.829-7.327
										L240.021,353.469z"/>
									<path style="fill:#4A4A4A;" d="M247.953,355.596l-8.845,7.071c0.638,0.161,1.275,0.311,1.914,0.46l7.798-7.297
										L247.953,355.596z"/>
								</g>
							</g>
						</g>
						<path style="fill:#2A2A2A;" d="M197.284,270.451c0-35.893,29.101-64.992,64.993-64.992c35.897,0,64.994,29.1,64.994,64.992
							c0,35.896-29.097,64.994-64.994,64.994C226.385,335.445,197.284,306.347,197.284,270.451z"/>
						<g>
							<g>
								<path style="fill:#5D5D5D;" d="M262.146,197.033c-1.002,2.009-1.803,3.755-2.114,4.577c0.467-0.742,1.378-2.438,2.377-4.448
									c1.002-2.008,1.804-3.758,2.113-4.576C264.057,193.328,263.145,195.023,262.146,197.033z"/>
							</g>
						</g>
						<g>
							<g>
								<path style="fill:#5D5D5D;" d="M257.538,197.185c-0.873,2.069-1.563,3.864-1.825,4.702c0.421-0.771,1.224-2.519,2.094-4.588
									c0.873-2.066,1.566-3.861,1.823-4.699C259.21,193.369,258.409,195.118,257.538,197.185z"/>
							</g>
						</g>
						<g>
							<g>
								<path style="fill:#5D5D5D;" d="M252.946,197.629c-0.741,2.117-1.318,3.953-1.524,4.805c0.372-0.796,1.064-2.59,1.801-4.708
									c0.743-2.119,1.32-3.953,1.525-4.806C254.378,193.713,253.686,195.511,252.946,197.629z"/>
							</g>
						</g>
						<g>
							<g>
								<path style="fill:#5D5D5D;" d="M248.392,198.359c-0.605,2.16-1.064,4.026-1.219,4.893c0.318-0.818,0.896-2.654,1.502-4.814
									c0.607-2.161,1.068-4.029,1.219-4.891C249.576,194.361,248.997,196.199,248.392,198.359z"/>
							</g>
						</g>
						<g>
							<g>
								<path style="fill:#5D5D5D;" d="M243.894,199.373c-0.471,2.195-0.811,4.087-0.912,4.959c0.271-0.834,0.73-2.703,1.199-4.898
									c0.47-2.194,0.813-4.087,0.909-4.957C244.822,195.309,244.362,197.179,243.894,199.373z"/>
							</g>
						</g>
						<g>
							<g>
								<path style="fill:#5D5D5D;" d="M239.466,200.67c-0.329,2.217-0.552,4.129-0.597,5.006c0.217-0.851,0.557-2.743,0.889-4.964
									c0.332-2.221,0.554-4.132,0.596-5.007C240.139,196.553,239.796,198.45,239.466,200.67z"/>
							</g>
						</g>
						<g>
							<g>
								<path style="fill:#5D5D5D;" d="M235.13,202.242c-0.189,2.234-0.292,4.152-0.282,5.03c0.164-0.86,0.385-2.771,0.576-5.008
									c0.19-2.24,0.292-4.157,0.28-5.036C235.542,198.091,235.32,200.004,235.13,202.242z"/>
							</g>
						</g>
						<g>
							<g>
								<path style="fill:#5D5D5D;" d="M230.9,204.08c-0.051,2.243-0.03,4.167,0.033,5.039c0.108-0.867,0.212-2.789,0.261-5.032
									c0.051-2.245,0.031-4.17-0.036-5.045C231.052,199.913,230.95,201.836,230.9,204.08z"/>
							</g>
						</g>
						<g>
							<g>
								<path style="fill:#5D5D5D;" d="M226.795,206.184c0.092,2.239,0.23,4.158,0.35,5.025c0.055-0.873,0.038-2.798-0.055-5.039
									c-0.089-2.244-0.23-4.162-0.353-5.033C226.685,202.014,226.704,203.939,226.795,206.184z"/>
							</g>
						</g>
						<g>
							<g>
								<path style="fill:#5D5D5D;" d="M222.828,208.539c0.234,2.229,0.494,4.135,0.668,4.994c-0.001-0.876-0.142-2.796-0.373-5.026
									c-0.231-2.234-0.491-4.141-0.669-5.001C222.457,204.385,222.597,206.305,222.828,208.539z"/>
							</g>
						</g>
						<g>
							<g>
								<path style="fill:#5D5D5D;" d="M219.019,211.139c0.375,2.209,0.752,4.097,0.98,4.943c-0.058-0.875-0.316-2.785-0.687-4.994
									c-0.371-2.215-0.754-4.102-0.983-4.948C218.389,207.014,218.647,208.923,219.019,211.139z"/>
							</g>
						</g>
						<g>
							<g>
								<path style="fill:#5D5D5D;" d="M215.381,213.971c0.512,2.183,1.007,4.042,1.288,4.873c-0.111-0.869-0.491-2.758-0.999-4.941
									c-0.51-2.186-1.009-4.044-1.292-4.877C214.492,209.896,214.87,211.786,215.381,213.971z"/>
							</g>
						</g>
						<g>
							<g>
								<path style="fill:#5D5D5D;" d="M211.929,217.027c0.648,2.146,1.256,3.97,1.591,4.781c-0.166-0.859-0.665-2.721-1.309-4.866
									c-0.646-2.151-1.26-3.975-1.594-4.787C210.784,213.017,211.28,214.881,211.929,217.027z"/>
							</g>
						</g>
						<g>
							<g>
								<path style="fill:#5D5D5D;" d="M208.673,220.295c0.781,2.1,1.506,3.885,1.888,4.674c-0.22-0.85-0.834-2.676-1.609-4.775
									c-0.782-2.107-1.509-3.888-1.893-4.678C207.28,216.365,207.893,218.191,208.673,220.295z"/>
							</g>
						</g>
						<g>
							<g>
								<path style="fill:#5D5D5D;" d="M205.63,223.761c0.911,2.046,1.746,3.782,2.179,4.546c-0.273-0.832-1.001-2.618-1.909-4.668
									c-0.91-2.052-1.749-3.785-2.182-4.549C203.993,219.926,204.719,221.71,205.63,223.761z"/>
							</g>
						</g>
						<g>
							<g>
								<path style="fill:#5D5D5D;" d="M202.81,227.41c1.038,1.984,1.979,3.664,2.461,4.399c-0.325-0.814-1.165-2.549-2.198-4.538
									c-1.037-1.99-1.983-3.666-2.465-4.402C200.935,223.686,201.773,225.423,202.81,227.41z"/>
							</g>
						</g>
						<g>
							<g>
								<path style="fill:#5D5D5D;" d="M200.226,231.23c1.159,1.917,2.205,3.534,2.73,4.237c-0.375-0.794-1.32-2.472-2.479-4.393
									c-1.161-1.92-2.209-3.533-2.733-4.238C198.121,227.629,199.064,229.311,200.226,231.23z"/>
							</g>
						</g>
						<g>
							<g>
								<path style="fill:#5D5D5D;" d="M197.884,235.201c1.278,1.844,2.424,3.39,2.993,4.061c-0.425-0.768-1.475-2.385-2.749-4.23
									c-1.28-1.841-2.429-3.388-2.996-4.058C195.557,231.744,196.607,233.361,197.884,235.201z"/>
							</g>
						</g>
						<g>
							<g>
								<path style="fill:#5D5D5D;" d="M195.799,239.317c1.393,1.755,2.632,3.23,3.241,3.863c-0.474-0.74-1.623-2.288-3.01-4.05
									c-1.393-1.757-2.637-3.229-3.244-3.862C193.259,236.011,194.409,237.56,195.799,239.317z"/>
							</g>
						</g>
						<g>
							<g>
								<path style="fill:#5D5D5D;" d="M193.976,243.553c1.501,1.665,2.829,3.06,3.477,3.653c-0.518-0.71-1.764-2.184-3.257-3.852
									c-1.502-1.667-2.835-3.059-3.481-3.651C191.234,240.412,192.477,241.885,193.976,243.553z"/>
							</g>
						</g>
						<g>
							<g>
								<path style="fill:#5D5D5D;" d="M192.42,247.895c1.604,1.568,3.017,2.875,3.7,3.427c-0.561-0.675-1.896-2.065-3.491-3.64
									c-1.604-1.567-3.02-2.873-3.705-3.424C189.487,244.935,190.823,246.326,192.42,247.895z"/>
							</g>
						</g>
						<g>
							<g>
								<path style="fill:#5D5D5D;" d="M191.142,252.327c1.697,1.464,3.191,2.679,3.909,3.188c-0.602-0.641-2.023-1.943-3.715-3.416
									c-1.699-1.463-3.194-2.678-3.913-3.186C188.029,249.554,189.449,250.861,191.142,252.327z"/>
							</g>
						</g>
						<g>
							<g>
								<path style="fill:#5D5D5D;" d="M190.144,256.829c1.785,1.355,3.354,2.475,4.102,2.938c-0.641-0.603-2.143-1.814-3.922-3.175
									c-1.788-1.355-3.356-2.472-4.104-2.933C186.863,254.26,188.363,255.474,190.144,256.829z"/>
							</g>
						</g>
						<g>
							<g>
								<path style="fill:#5D5D5D;" d="M189.431,261.386c1.868,1.239,3.504,2.257,4.279,2.675c-0.677-0.563-2.251-1.676-4.114-2.922
									c-1.868-1.242-3.507-2.257-4.278-2.671C185.997,259.025,187.57,260.147,189.431,261.386z"/>
							</g>
						</g>
						<g>
							<g>
								<path style="fill:#5D5D5D;" d="M189.006,265.979c1.94,1.12,3.637,2.031,4.44,2.399c-0.715-0.516-2.354-1.53-4.29-2.658
									c-1.944-1.121-3.643-2.033-4.441-2.396C185.431,263.84,187.07,264.857,189.006,265.979z"/>
							</g>
						</g>
						<g>
							<g>
								<path style="fill:#5D5D5D;" d="M188.868,270.59c2.01,0.996,3.761,1.799,4.582,2.116c-0.743-0.473-2.443-1.381-4.447-2.385
									c-2.011-0.998-3.761-1.8-4.582-2.113C185.166,268.679,186.867,269.59,188.868,270.59z"/>
							</g>
						</g>
						<g>
							<g>
								<path style="fill:#5D5D5D;" d="M189.022,275.198c2.069,0.868,3.864,1.563,4.707,1.825c-0.771-0.426-2.526-1.225-4.59-2.1
									c-2.07-0.87-3.867-1.559-4.703-1.819C185.207,273.523,186.962,274.328,189.022,275.198z"/>
							</g>
						</g>
						<g>
							<g>
								<path style="fill:#5D5D5D;" d="M189.465,279.79c2.119,0.735,3.956,1.316,4.811,1.525c-0.796-0.375-2.597-1.063-4.71-1.807
									c-2.121-0.739-3.959-1.314-4.809-1.52C185.551,278.357,187.355,279.051,189.465,279.79z"/>
							</g>
						</g>
						<g>
							<g>
								<path style="fill:#5D5D5D;" d="M190.195,284.344c2.16,0.602,4.028,1.064,4.896,1.221c-0.818-0.326-2.657-0.898-4.813-1.508
									c-2.165-0.607-4.032-1.063-4.896-1.217C186.2,283.161,188.046,283.74,190.195,284.344z"/>
							</g>
						</g>
						<g>
							<g>
								<path style="fill:#5D5D5D;" d="M191.212,288.844c2.191,0.463,4.086,0.81,4.963,0.908c-0.838-0.272-2.71-0.728-4.9-1.201
									c-2.197-0.469-4.093-0.809-4.961-0.907C187.149,287.912,189.026,288.377,191.212,288.844z"/>
							</g>
						</g>
						<g>
							<g>
								<path style="fill:#5D5D5D;" d="M192.506,293.271c2.218,0.322,4.132,0.55,5.012,0.595c-0.854-0.221-2.753-0.557-4.964-0.893
									c-2.226-0.329-4.135-0.546-5.012-0.594C188.394,292.596,190.297,292.941,192.506,293.271z"/>
							</g>
						</g>
						<g>
							<g>
								<path style="fill:#5D5D5D;" d="M194.077,297.605c2.232,0.188,4.158,0.292,5.037,0.279c-0.863-0.162-2.78-0.381-5.008-0.578
									c-2.242-0.189-4.162-0.285-5.042-0.276C189.932,297.19,191.851,297.417,194.077,297.605z"/>
							</g>
						</g>
						<g>
							<g>
								<path style="fill:#5D5D5D;" d="M195.917,301.835c2.24,0.044,4.168,0.029,5.045-0.037c-0.873-0.108-2.8-0.208-5.037-0.264
									c-2.247-0.046-4.17-0.023-5.047,0.038C191.752,301.684,193.685,301.788,195.917,301.835z"/>
							</g>
						</g>
						<g>
							<g>
								<path style="fill:#5D5D5D;" d="M198.02,305.941c2.235-0.097,4.16-0.234,5.031-0.354c-0.878-0.055-2.807-0.032-5.044,0.051
									c-2.244,0.095-4.162,0.24-5.034,0.356C193.852,306.049,195.787,306.034,198.02,305.941z"/>
							</g>
						</g>
						<g>
							<g>
								<path style="fill:#5D5D5D;" d="M200.374,309.906c2.229-0.236,4.138-0.494,5.002-0.67c-0.881,0.002-2.805,0.146-5.031,0.369
									c-2.234,0.236-4.139,0.5-5.002,0.673C196.224,310.276,198.153,310.138,200.374,309.906z"/>
							</g>
						</g>
						<g>
							<g>
								<path style="fill:#5D5D5D;" d="M202.973,313.717c2.21-0.376,4.101-0.753,4.951-0.982c-0.878,0.057-2.79,0.32-4.999,0.685
									c-2.216,0.374-4.099,0.759-4.948,0.984C198.856,314.345,200.771,314.086,202.973,313.717z"/>
							</g>
						</g>
						<g>
							<g>
								<path style="fill:#5D5D5D;" d="M205.807,317.356c2.183-0.515,4.045-1.008,4.881-1.293c-0.873,0.113-2.767,0.493-4.946,0.997
									c-2.189,0.515-4.043,1.017-4.878,1.293C201.736,318.241,203.633,317.863,205.807,317.356z"/>
							</g>
						</g>
						<g>
							<g>
								<path style="fill:#5D5D5D;" d="M208.862,320.81c2.146-0.65,3.973-1.261,4.79-1.596c-0.865,0.166-2.728,0.665-4.873,1.308
									c-2.153,0.646-3.972,1.266-4.786,1.594C204.857,321.95,206.726,321.451,208.862,320.81z"/>
							</g>
						</g>
						<g>
							<g>
								<path style="fill:#5D5D5D;" d="M212.13,324.065c2.101-0.784,3.886-1.508,4.681-1.894c-0.854,0.221-2.682,0.836-4.782,1.61
									c-2.106,0.781-3.884,1.515-4.676,1.893C208.203,325.453,210.038,324.839,212.13,324.065z"/>
							</g>
						</g>
						<g>
							<g>
								<path style="fill:#5D5D5D;" d="M215.597,327.107c2.048-0.913,3.784-1.747,4.552-2.184c-0.838,0.277-2.623,1.002-4.673,1.908
									c-2.052,0.914-3.783,1.754-4.548,2.183C211.763,328.739,213.558,328.012,215.597,327.107z"/>
							</g>
						</g>
						<g>
							<g>
								<path style="fill:#5D5D5D;" d="M219.243,329.926c1.989-1.039,3.668-1.982,4.408-2.464c-0.818,0.327-2.556,1.165-4.542,2.198
									c-1.991,1.04-3.664,1.987-4.402,2.464C215.522,331.798,217.268,330.959,219.243,329.926z"/>
							</g>
						</g>
						<g>
							<g>
								<path style="fill:#5D5D5D;" d="M244.164,341.594c1.463-1.697,2.682-3.191,3.188-3.914c-0.639,0.606-1.945,2.024-3.414,3.716
									c-1.467,1.7-2.675,3.198-3.185,3.911C241.39,344.705,242.706,343.283,244.164,341.594z"/>
							</g>
						</g>
						<g>
							<g>
								<path style="fill:#5D5D5D;" d="M248.669,342.593c1.353-1.787,2.474-3.354,2.933-4.107c-0.602,0.645-1.813,2.141-3.173,3.921
									c-1.358,1.791-2.466,3.363-2.934,4.105C246.094,345.869,247.318,344.368,248.669,342.593z"/>
							</g>
						</g>
						<g>
							<g>
								<path style="fill:#5D5D5D;" d="M253.225,343.307c1.241-1.871,2.26-3.505,2.671-4.285c-0.56,0.683-1.675,2.25-2.921,4.114
									c-1.242,1.871-2.251,3.51-2.671,4.278C250.861,346.738,251.988,345.162,253.225,343.307z"/>
							</g>
						</g>
						<g>
							<g>
								<path style="fill:#5D5D5D;" d="M257.82,343.731c1.119-1.944,2.033-3.64,2.393-4.442c-0.516,0.715-1.529,2.35-2.657,4.287
									c-1.121,1.945-2.023,3.646-2.395,4.439C255.674,347.303,256.699,345.661,257.82,343.731z"/>
							</g>
						</g>
						<g>
							<g>
								<path style="fill:#5D5D5D;" d="M262.429,343.868c0.996-2.012,1.802-3.762,2.11-4.585c-0.466,0.746-1.376,2.441-2.382,4.444
									c-0.997,2.013-1.791,3.767-2.112,4.581C260.514,347.566,261.434,345.863,262.429,343.868z"/>
							</g>
						</g>
						<g>
							<g>
								<path style="fill:#5D5D5D;" d="M267.038,343.715c0.868-2.07,1.564-3.867,1.818-4.708c-0.42,0.771-1.219,2.522-2.098,4.587
									c-0.869,2.069-1.551,3.869-1.819,4.704C265.358,347.524,266.171,345.768,267.038,343.715z"/>
							</g>
						</g>
						<g>
							<g>
								<path style="fill:#5D5D5D;" d="M271.63,343.272c0.736-2.12,1.315-3.956,1.518-4.814c-0.368,0.8-1.059,2.595-1.805,4.708
									c-0.738,2.125-1.306,3.963-1.522,4.812C270.191,347.18,270.894,345.377,271.63,343.272z"/>
							</g>
						</g>
						<g>
							<g>
								<path style="fill:#5D5D5D;" d="M276.185,342.541c0.6-2.162,1.064-4.031,1.215-4.898c-0.32,0.82-0.896,2.656-1.508,4.813
									c-0.604,2.164-1.054,4.036-1.215,4.896C274.994,346.532,275.582,344.688,276.185,342.541z"/>
							</g>
						</g>
						<g>
							<g>
								<path style="fill:#5D5D5D;" d="M309.197,326.928c-0.518-2.182-1.009-4.043-1.298-4.88c0.118,0.875,0.497,2.765,0.997,4.946
									c0.515,2.188,1.024,4.043,1.293,4.875C310.076,330.996,309.702,329.102,309.197,326.928z"/>
							</g>
						</g>
						<g>
							<g>
								<path style="fill:#5D5D5D;" d="M312.651,323.869c-0.654-2.145-1.261-3.969-1.602-4.786c0.172,0.866,0.669,2.726,1.309,4.872
									c0.647,2.15,1.272,3.972,1.596,4.787C313.785,327.877,313.29,326.006,312.651,323.869z"/>
							</g>
						</g>
						<g>
							<g>
								<path style="fill:#5D5D5D;" d="M315.906,320.603c-0.786-2.102-1.507-3.884-1.9-4.678c0.226,0.857,0.84,2.679,1.612,4.781
									c0.782,2.105,1.521,3.882,1.892,4.678C317.289,324.53,316.678,322.695,315.906,320.603z"/>
							</g>
						</g>
						<g>
							<g>
								<path style="fill:#5D5D5D;" d="M318.95,317.138c-0.916-2.048-1.748-3.781-2.19-4.55c0.278,0.839,1.006,2.619,1.908,4.67
									c0.913,2.053,1.763,3.778,2.183,4.548C320.576,320.97,319.852,319.177,318.95,317.138z"/>
							</g>
						</g>
						<g>
							<g>
								<path style="fill:#5D5D5D;" d="M321.77,313.487c-1.043-1.986-1.982-3.664-2.472-4.403c0.331,0.821,1.169,2.552,2.198,4.54
									c1.041,1.991,1.997,3.663,2.464,4.403C323.633,317.209,322.798,315.465,321.77,313.487z"/>
							</g>
						</g>
						<g>
							<g>
								<path style="fill:#5D5D5D;" d="M324.355,309.667c-1.165-1.917-2.209-3.532-2.742-4.24c0.38,0.8,1.325,2.474,2.478,4.396
									c1.164,1.921,2.226,3.531,2.735,4.239C326.448,313.266,325.505,311.576,324.355,309.667z"/>
							</g>
						</g>
						<g>
							<g>
								<path style="fill:#5D5D5D;" d="M326.695,305.693c-1.284-1.84-2.426-3.389-3.005-4.06c0.432,0.772,1.483,2.386,2.752,4.229
									c1.284,1.847,2.439,3.384,2.994,4.061C329.011,309.152,327.961,307.524,326.695,305.693z"/>
							</g>
						</g>
						<g>
							<g>
								<path style="fill:#5D5D5D;" d="M328.78,301.579c-1.395-1.756-2.633-3.228-3.25-3.861c0.477,0.743,1.626,2.285,3.008,4.048
									c1.397,1.761,2.648,3.222,3.246,3.863C331.309,304.885,330.16,303.327,328.78,301.579z"/>
							</g>
						</g>
						<g>
							<g>
								<path style="fill:#5D5D5D;" d="M330.604,297.342c-1.504-1.664-2.83-3.056-3.49-3.648c0.527,0.71,1.77,2.179,3.26,3.852
									c1.505,1.671,2.847,3.048,3.482,3.65C333.337,300.482,332.091,299,330.604,297.342z"/>
							</g>
						</g>
						<g>
							<g>
								<path style="fill:#5D5D5D;" d="M332.158,292.998c-1.604-1.565-3.016-2.871-3.712-3.423c0.569,0.678,1.903,2.066,3.494,3.641
									c1.609,1.571,3.032,2.863,3.706,3.425C335.082,295.963,333.746,294.56,332.158,292.998z"/>
							</g>
						</g>
						<g>
							<g>
								<path style="fill:#5D5D5D;" d="M333.439,288.568c-1.701-1.466-3.194-2.677-3.923-3.182c0.61,0.637,2.028,1.938,3.716,3.409
									c1.706,1.468,3.206,2.669,3.912,3.186C336.542,291.341,335.117,290.027,333.439,288.568z"/>
							</g>
						</g>
						<g>
							<g>
								<path style="fill:#5D5D5D;" d="M334.435,284.064c-1.789-1.354-3.354-2.472-4.114-2.931c0.651,0.601,2.147,1.809,3.923,3.171
									c1.794,1.36,3.367,2.464,4.105,2.938C337.707,286.638,336.202,285.416,334.435,284.064z"/>
							</g>
						</g>
						<g>
							<g>
								<path style="fill:#5D5D5D;" d="M335.148,279.506c-1.871-1.237-3.504-2.255-4.289-2.665c0.686,0.558,2.255,1.669,4.113,2.919
									c1.876,1.242,3.515,2.246,4.279,2.672C338.575,281.87,336.997,280.746,335.148,279.506z"/>
							</g>
						</g>
						<g>
							<g>
								<path style="fill:#5D5D5D;" d="M335.573,274.913c-1.945-1.118-3.638-2.029-4.448-2.39c0.721,0.512,2.354,1.523,4.288,2.654
									c1.95,1.122,3.649,2.021,4.441,2.396C339.142,277.058,337.495,276.036,335.573,274.913z"/>
							</g>
						</g>
						<g>
							<g>
								<path style="fill:#5D5D5D;" d="M335.706,270.302c-2.008-0.995-3.756-1.797-4.588-2.104c0.753,0.465,2.449,1.373,4.448,2.379
									c2.016,0.996,3.769,1.788,4.583,2.113C339.403,272.22,337.7,271.303,335.706,270.302z"/>
							</g>
						</g>
						<g>
							<g>
								<path style="fill:#5D5D5D;" d="M335.554,265.691c-2.067-0.865-3.862-1.558-4.712-1.813c0.778,0.418,2.528,1.218,4.587,2.097
									c2.078,0.869,3.874,1.546,4.708,1.821C339.365,267.373,337.605,266.565,335.554,265.691z"/>
							</g>
						</g>
						<g>
							<g>
								<path style="fill:#5D5D5D;" d="M335.109,261.102c-2.116-0.734-3.953-1.314-4.815-1.513c0.806,0.366,2.6,1.055,4.709,1.804
									c2.129,0.734,3.964,1.298,4.813,1.521C339.02,262.541,337.212,261.843,335.109,261.102z"/>
							</g>
						</g>
						<g>
							<g>
								<path style="fill:#5D5D5D;" d="M334.382,256.547c-2.16-0.598-4.03-1.061-4.905-1.206c0.827,0.314,2.663,0.888,4.815,1.503
									c2.169,0.602,4.036,1.047,4.898,1.218C338.371,257.738,336.523,257.156,334.382,256.547z"/>
							</g>
						</g>
						<g>
							<g>
								<path style="fill:#5D5D5D;" d="M333.365,252.047c-2.191-0.462-4.088-0.806-4.971-0.896c0.846,0.264,2.715,0.722,4.899,1.198
									c2.206,0.465,4.095,0.792,4.966,0.907C337.424,252.987,335.542,252.52,333.365,252.047z"/>
							</g>
						</g>
						<g>
							<g>
								<path style="fill:#5D5D5D;" d="M332.069,247.619c-2.216-0.32-4.13-0.546-5.017-0.582c0.862,0.212,2.754,0.549,4.969,0.89
									c2.228,0.326,4.134,0.532,5.011,0.594C336.177,248.303,334.274,247.956,332.069,247.619z"/>
							</g>
						</g>
						<g>
							<g>
								<path style="fill:#5D5D5D;" d="M330.497,243.283c-2.232-0.183-4.154-0.287-5.043-0.268c0.872,0.156,2.783,0.375,5.013,0.576
									c2.244,0.185,4.161,0.273,5.04,0.278C334.642,243.706,332.718,243.479,330.497,243.283z"/>
							</g>
						</g>
						<g>
							<g>
								<path style="fill:#5D5D5D;" d="M328.658,239.055c-2.238-0.042-4.167-0.026-5.049,0.049c0.879,0.102,2.8,0.199,5.035,0.26
									c2.253,0.043,4.172,0.012,5.05-0.037C332.818,239.217,330.886,239.111,328.658,239.055z"/>
							</g>
						</g>
						<g>
							<g>
								<path style="fill:#5D5D5D;" d="M326.555,234.947c-2.235,0.1-4.158,0.237-5.034,0.369c0.883,0.045,2.807,0.021,5.044-0.059
									c2.248-0.098,4.163-0.251,5.033-0.354C330.719,234.85,328.783,234.865,326.555,234.947z"/>
							</g>
						</g>
						<g>
							<g>
								<path style="fill:#5D5D5D;" d="M324.199,230.982c-2.226,0.239-4.135,0.496-5.002,0.683c0.884-0.008,2.805-0.152,5.029-0.371
									c2.238-0.241,4.141-0.514,5.003-0.673C328.351,230.621,326.417,230.76,324.199,230.982z"/>
							</g>
						</g>
						<g>
							<g>
								<path style="fill:#5D5D5D;" d="M321.6,227.172c-2.208,0.379-4.098,0.756-4.949,0.996c0.883-0.066,2.786-0.328,4.996-0.687
									c2.219-0.38,4.101-0.772,4.951-0.984C325.72,226.551,323.8,226.811,321.6,227.172z"/>
							</g>
						</g>
						<g>
							<g>
								<path style="fill:#5D5D5D;" d="M318.766,223.533c-2.178,0.517-4.042,1.012-4.877,1.305c0.876-0.121,2.76-0.503,4.944-1
									c2.187-0.52,4.041-1.028,4.879-1.292C322.838,222.655,320.938,223.035,318.766,223.533z"/>
							</g>
						</g>
						<g>
							<g>
								<path style="fill:#5D5D5D;" d="M315.708,220.079c-2.141,0.653-3.97,1.265-4.786,1.608c0.868-0.172,2.724-0.676,4.873-1.308
									c2.15-0.656,3.969-1.278,4.787-1.597C319.717,218.945,317.845,219.444,315.708,220.079z"/>
							</g>
						</g>
						<g>
							<g>
								<path style="fill:#5D5D5D;" d="M312.438,216.824c-2.094,0.785-3.881,1.512-4.673,1.906c0.855-0.228,2.677-0.848,4.778-1.609
									c2.107-0.79,3.885-1.528,4.68-1.895C316.369,215.44,314.532,216.057,312.438,216.824z"/>
							</g>
						</g>
						<g>
							<g>
								<path style="fill:#5D5D5D;" d="M308.973,213.78c-2.043,0.917-3.78,1.75-4.545,2.198c0.838-0.282,2.62-1.016,4.669-1.908
									c2.053-0.923,3.778-1.771,4.551-2.184C312.808,212.153,311.015,212.883,308.973,213.78z"/>
							</g>
						</g>
						<g>
							<g>
								<path style="fill:#5D5D5D;" d="M305.323,210.961c-1.981,1.043-3.664,1.985-4.399,2.477c0.819-0.332,2.55-1.175,4.54-2.197
									c1.991-1.049,3.661-2.002,4.407-2.463C309.047,209.094,307.304,209.938,305.323,210.961z"/>
							</g>
						</g>
						<g>
							<g>
								<path style="fill:#5D5D5D;" d="M301.503,208.376c-1.913,1.164-3.532,2.211-4.237,2.75c0.799-0.385,2.475-1.337,4.396-2.478
									c1.92-1.174,3.527-2.229,4.242-2.738C305.103,206.279,303.416,207.231,301.503,208.376z"/>
							</g>
						</g>
						<g>
							<g>
								<path style="fill:#5D5D5D;" d="M297.526,206.036c-1.832,1.281-3.384,2.428-4.053,3.011c0.77-0.437,2.382-1.488,4.229-2.75
									c1.844-1.292,3.38-2.445,4.061-2.998C300.988,203.719,299.365,204.771,297.526,206.036z"/>
							</g>
						</g>
						<g>
							<g>
								<path style="fill:#5D5D5D;" d="M293.411,203.95c-1.748,1.396-3.223,2.637-3.855,3.259c0.742-0.482,2.284-1.633,4.049-3.01
									c1.758-1.404,3.22-2.653,3.866-3.248C296.724,201.418,295.166,202.574,293.411,203.95z"/>
							</g>
						</g>
						<g>
							<g>
								<path style="fill:#5D5D5D;" d="M289.175,202.129c-1.657,1.502-3.051,2.833-3.642,3.493c0.709-0.53,2.176-1.774,3.85-3.258
									c1.669-1.514,3.048-2.851,3.653-3.483C292.321,199.393,290.841,200.643,289.175,202.129z"/>
							</g>
						</g>
						<g>
							<g>
								<path style="fill:#5D5D5D;" d="M284.833,200.573c-1.561,1.605-2.87,3.021-3.415,3.718c0.673-0.574,2.059-1.909,3.638-3.494
									c1.568-1.617,2.86-3.035,3.428-3.706C287.801,197.646,286.402,198.988,284.833,200.573z"/>
							</g>
						</g>
						<g>
							<g>
								<path style="fill:#5D5D5D;" d="M280.401,199.297c-1.459,1.699-2.674,3.193-3.177,3.924c0.639-0.617,1.937-2.037,3.412-3.715
									c1.465-1.712,2.666-3.21,3.189-3.914C283.178,196.189,281.865,197.615,280.401,199.297z"/>
							</g>
						</g>
						<g>
							<g>
								<path style="fill:#5D5D5D;" d="M275.898,198.299c-1.348,1.787-2.469,3.357-2.923,4.117c0.597-0.656,1.804-2.154,3.171-3.923
									c1.355-1.799,2.458-3.371,2.937-4.108C278.474,195.023,277.254,196.529,275.898,198.299z"/>
							</g>
						</g>
						<g>
							<g>
								<path style="fill:#5D5D5D;" d="M271.34,197.587c-1.233,1.868-2.251,3.503-2.658,4.29c0.557-0.691,1.665-2.262,2.919-4.113
									c1.238-1.882,2.243-3.517,2.673-4.283C273.705,194.154,272.583,195.735,271.34,197.587z"/>
							</g>
						</g>
						<g>
							<g>
								<path style="fill:#5D5D5D;" d="M266.748,197.162c-1.112,1.941-2.028,3.638-2.384,4.45c0.51-0.728,1.521-2.362,2.654-4.288
									c1.118-1.959,2.018-3.652,2.399-4.445C268.894,193.589,267.872,195.236,266.748,197.162z"/>
							</g>
						</g>
						<path style="fill:#E0E0E0;" d="M262.277,335.445c35.897,0,64.994-29.099,64.994-64.994c0-35.893-29.097-64.992-64.994-64.992
							c-35.892,0-64.993,29.1-64.993,64.992C197.284,306.347,226.385,335.445,262.277,335.445z M323.844,268.082
							c0,0,0.378,11.256-2.926,21.425c-3.304,10.167-10.224,19.052-10.224,19.052c-3.343,3.929-8.305,3.777-11.021-0.342
							c-2.722-4.119-7.484-11.325-10.578-16.014l-5.333-8.075c-3.097-4.685-1.324-10.138,3.936-12.11l9.058-3.399
							c5.263-1.972,13.35-5.004,17.972-6.737C319.348,260.147,323.451,262.939,323.844,268.082z M279.05,211.169
							c0,0,10.819,3.116,19.471,9.401c8.65,6.285,14.963,15.612,14.963,15.612c2.701,4.395,1.023,9.064-3.732,10.377
							c-4.758,1.314-13.083,3.616-18.501,5.111l-9.325,2.577c-5.415,1.497-10.054-1.873-10.303-7.486l-0.433-9.668
							c-0.249-5.612-0.636-14.241-0.854-19.172C270.112,212.99,274.035,209.952,279.05,211.169z M268.647,295.111l6.029,7.565
							c3.505,4.393,8.885,11.147,11.963,15.01c3.075,3.858,1.688,8.623-3.082,10.587c0,0-10.589,3.837-21.28,3.837
							c-10.692,0-21.278-3.837-21.278-3.837c-4.771-1.964-6.157-6.729-3.082-10.587c3.077-3.862,8.459-10.617,11.962-15.01
							l6.029-7.565C259.411,290.719,265.145,290.719,268.647,295.111z M211.079,236.183c0,0,6.308-9.327,14.959-15.612
							c8.651-6.286,19.472-9.405,19.472-9.405c5.014-1.212,8.936,1.825,8.716,6.755c-0.22,4.932-0.604,13.561-0.854,19.174
							l-0.434,9.668c-0.249,5.61-4.888,8.98-10.303,7.485l-9.325-2.576c-5.419-1.497-13.744-3.799-18.499-5.113
							C210.053,245.246,208.374,240.574,211.079,236.183z M209.83,261.877c4.62,1.735,12.709,4.766,17.971,6.74l9.06,3.397
							c5.261,1.975,7.033,7.425,3.935,12.113l-5.333,8.074c-3.097,4.69-7.857,11.896-10.577,16.014
							c-2.72,4.119-7.68,4.271-11.021,0.34c0,0-6.92-8.881-10.224-19.048c-3.304-10.17-2.928-21.428-2.928-21.428
							C201.109,262.939,205.211,260.145,209.83,261.877z"/>
						<g>
							<path style="fill:#4A4A4A;" d="M258.589,255.194c0-2.037,1.653-3.688,3.688-3.688c2.039,0,3.691,1.651,3.691,3.688
								c0,2.036-1.651,3.691-3.691,3.691C260.242,258.886,258.589,257.23,258.589,255.194z"/>
							<path style="fill:#BABABA;" d="M260.192,255.194c0-1.151,0.935-2.085,2.085-2.085c1.152,0,2.087,0.934,2.087,2.085
								c0,1.152-0.935,2.087-2.087,2.087C261.127,257.281,260.192,256.347,260.192,255.194z"/>
							<path style="fill:#E0E0E0;" d="M261.118,255.194c0-0.639,0.52-1.159,1.159-1.159c0.642,0,1.162,0.52,1.162,1.159
								c0,0.642-0.521,1.16-1.162,1.16C261.638,256.354,261.118,255.836,261.118,255.194z"/>
						</g>
						<g>
							<path style="fill:#4A4A4A;" d="M246.627,269.246c-1.937-0.63-2.998-2.713-2.369-4.648c0.632-1.939,2.712-2.999,4.649-2.369
								c1.937,0.629,2.999,2.711,2.369,4.65C250.645,268.814,248.565,269.875,246.627,269.246z"/>
							<path style="fill:#BABABA;" d="M247.122,267.72c-1.094-0.356-1.694-1.532-1.34-2.625c0.357-1.098,1.533-1.697,2.631-1.341
								c1.094,0.355,1.694,1.531,1.339,2.627C249.395,267.477,248.218,268.075,247.122,267.72z"/>
							<path style="fill:#E0E0E0;" d="M247.409,266.838c-0.608-0.197-0.943-0.851-0.746-1.459c0.198-0.609,0.853-0.942,1.462-0.743
								c0.609,0.196,0.942,0.851,0.746,1.461C248.672,266.703,248.019,267.037,247.409,266.838z"/>
						</g>
						<g>
							<path style="fill:#4A4A4A;" d="M256.295,284.963c-1.197,1.648-3.507,2.014-5.155,0.815c-1.648-1.196-2.013-3.505-0.813-5.152
								c1.195-1.647,3.505-2.015,5.153-0.817C257.126,281.006,257.491,283.315,256.295,284.963z"/>
							<path style="fill:#BABABA;" d="M254.996,284.022c-0.677,0.932-1.98,1.139-2.912,0.461c-0.934-0.676-1.141-1.98-0.462-2.914
								c0.676-0.93,1.982-1.138,2.916-0.462C255.467,281.785,255.674,283.091,254.996,284.022z"/>
							<path style="fill:#E0E0E0;" d="M254.246,283.478c-0.374,0.515-1.1,0.633-1.618,0.255c-0.517-0.374-0.634-1.101-0.257-1.619
								c0.377-0.519,1.102-0.635,1.62-0.259C254.508,282.232,254.626,282.958,254.246,283.478z"/>
						</g>
						<g>
							<path style="fill:#4A4A4A;" d="M274.23,280.628c1.197,1.647,0.83,3.956-0.817,5.152c-1.65,1.198-3.956,0.833-5.154-0.817
								c-1.197-1.645-0.832-3.957,0.816-5.154C270.724,278.615,273.032,278.979,274.23,280.628z"/>
							<path style="fill:#BABABA;" d="M272.932,281.57c0.679,0.932,0.472,2.236-0.46,2.912c-0.934,0.678-2.236,0.474-2.914-0.463
								c-0.676-0.929-0.47-2.234,0.46-2.913C270.95,280.433,272.258,280.637,272.932,281.57z"/>
							<path style="fill:#E0E0E0;" d="M272.182,282.115c0.377,0.518,0.264,1.244-0.256,1.618c-0.517,0.378-1.242,0.261-1.617-0.257
								c-0.379-0.519-0.264-1.242,0.257-1.621C271.081,281.479,271.806,281.596,272.182,282.115z"/>
						</g>
						<g>
							<path style="fill:#4A4A4A;" d="M275.65,262.229c1.934-0.631,4.016,0.434,4.647,2.37c0.628,1.938-0.433,4.019-2.372,4.646
								c-1.935,0.631-4.019-0.43-4.648-2.367C272.651,264.941,273.71,262.859,275.65,262.229z"/>
							<path style="fill:#BABABA;" d="M276.145,263.754c1.097-0.356,2.27,0.242,2.628,1.341c0.356,1.096-0.241,2.272-1.342,2.626
								c-1.093,0.354-2.272-0.243-2.629-1.34C274.449,265.289,275.047,264.109,276.145,263.754z"/>
							<path style="fill:#E0E0E0;" d="M276.432,264.638c0.608-0.199,1.262,0.133,1.457,0.743c0.2,0.608-0.134,1.262-0.742,1.457
								c-0.611,0.201-1.264-0.135-1.464-0.744C275.485,265.487,275.82,264.833,276.432,264.638z"/>
						</g>
						<path style="fill:#5D5D5D;" d="M271.245,270.441c0,4.953-4.015,8.967-8.968,8.967c-4.951,0-8.966-4.014-8.966-8.967
							c0-4.951,4.015-8.966,8.966-8.966C267.23,261.476,271.245,265.49,271.245,270.441z"/>
						<path style="fill:#C2C2C2;" d="M286.64,317.685c-3.078-3.862-8.458-10.617-11.963-15.01l-6.029-7.565
							c-3.502-4.392-9.236-4.392-12.739,0l-6.029,7.565c-3.503,4.393-8.885,11.147-11.962,15.01
							c-3.075,3.858-1.689,8.623,3.082,10.587c0,0,10.586,3.837,21.278,3.837c10.691,0,21.28-3.837,21.28-3.837
							C288.327,326.309,289.715,321.543,286.64,317.685z M278.358,325.044c0,0-8.001,2.898-16.081,2.898
							c-8.078,0-16.079-2.898-16.079-2.898c-3.604-1.485-4.654-5.084-2.329-8.001c2.324-2.918,6.392-8.021,9.038-11.342l4.559-5.719
							c2.647-3.32,6.978-3.32,9.625,0l4.557,5.719c2.649,3.32,6.715,8.424,9.041,11.342
							C283.013,319.96,281.963,323.559,278.358,325.044z"/>
						<path style="fill:#C2C2C2;" d="M314.727,261.88c-4.624,1.734-12.709,4.763-17.971,6.737l-9.058,3.397
							c-5.263,1.975-7.034,7.427-3.936,12.113l5.332,8.074c3.094,4.69,7.857,11.895,10.577,16.014
							c2.719,4.119,7.68,4.271,11.021,0.34c0,0,6.92-8.881,10.225-19.048c3.303-10.17,2.926-21.425,2.926-21.425
							C323.449,262.938,319.348,260.145,314.727,261.88z M319.166,272.029c0,0,0.286,8.503-2.211,16.188
							c-2.496,7.686-7.726,14.397-7.726,14.397c-2.527,2.971-6.273,2.855-8.329-0.255c-2.058-3.114-5.654-8.56-7.995-12.103
							l-4.029-6.104c-2.339-3.541-1.001-7.662,2.974-9.151l6.846-2.569c3.977-1.491,10.086-3.779,13.582-5.092
							C315.77,266.031,318.868,268.139,319.166,272.029z"/>
						<path style="fill:#C2C2C2;" d="M270.333,217.922c0.219,4.931,0.601,13.559,0.854,19.172l0.432,9.666
							c0.249,5.613,4.889,8.982,10.306,7.487l9.322-2.576c5.418-1.495,13.742-3.799,18.501-5.111
							c4.758-1.316,6.434-5.985,3.732-10.38c0,0-6.311-9.324-14.96-15.609c-8.652-6.286-19.474-9.403-19.474-9.403
							C274.034,209.951,270.11,212.988,270.333,217.922z M281.355,216.836c0,0,8.177,2.356,14.715,7.104
							c6.537,4.75,11.304,11.797,11.304,11.797c2.044,3.321,0.776,6.849-2.817,7.844c-3.599,0.993-9.888,2.732-13.979,3.862
							l-7.05,1.946c-4.091,1.13-7.597-1.416-7.786-5.657l-0.326-7.305c-0.192-4.24-0.48-10.759-0.646-14.491
							C274.602,218.214,277.565,215.916,281.355,216.836z"/>
						<path style="fill:#C2C2C2;" d="M214.808,246.558c4.757,1.314,13.081,3.62,18.498,5.113l9.324,2.576
							c5.418,1.498,10.056-1.875,10.305-7.485l0.433-9.668c0.251-5.61,0.636-14.241,0.855-19.172
							c0.221-4.932-3.702-7.969-8.718-6.753c0,0-10.818,3.118-19.468,9.401c-8.65,6.285-14.961,15.612-14.961,15.612
							C208.372,240.574,210.048,245.246,214.808,246.558z M217.18,235.74c0,0,4.768-7.05,11.305-11.8
							c6.537-4.748,14.714-7.104,14.714-7.104c3.79-0.92,6.754,1.379,6.589,5.103c-0.167,3.727-0.457,10.249-0.646,14.49
							l-0.328,7.306c-0.188,4.239-3.694,6.785-7.787,5.656l-7.048-1.947c-4.092-1.129-10.379-2.869-13.979-3.862
							C216.405,242.586,215.135,239.061,217.18,235.74z"/>
						<path style="fill:#C2C2C2;" d="M224.882,308.217c2.724-4.119,7.487-11.323,10.579-16.016l5.332-8.07
							c3.101-4.69,1.325-10.141-3.935-12.113l-9.059-3.4c-5.262-1.975-13.35-5.003-17.972-6.737
							c-4.621-1.733-8.723,1.059-9.115,6.202c0,0-0.376,11.256,2.927,21.425c3.303,10.167,10.225,19.052,10.225,19.052
							C217.203,312.488,222.164,312.337,224.882,308.217z M215.327,302.616c0,0-5.229-6.712-7.727-14.397
							c-2.499-7.685-2.212-16.188-2.212-16.188c0.298-3.893,3.399-5.997,6.891-4.691c3.494,1.313,9.604,3.601,13.582,5.092
							l6.845,2.571c3.976,1.487,5.313,5.61,2.973,9.151l-4.027,6.104c-2.339,3.541-5.938,8.986-7.994,12.102
							C221.599,305.469,217.854,305.588,215.327,302.616z"/>
						<path style="fill:#2A2A2A;" d="M268.832,270.441c0,3.619-2.935,6.554-6.555,6.554c-3.618,0-6.552-2.935-6.552-6.554
							c0-3.619,2.934-6.553,6.552-6.553C265.897,263.889,268.832,266.822,268.832,270.441z"/>
					</g>
					<g style="clip-path:url(#SVGID_00000100353421297529972270000016842003443815619217_);">
						<g>
							<path style="fill:#5D5D5D;" d="M262.096,341.93l-82.014-0.197c0.197-2.559,1.415-3.625,2.897-4.92
								c1.574-1.379,4.869-3.11,4.869-7.02c0,0,51.636,8.472,74.244,8.68"/>
						</g>
						<path style="fill:#4A4A4A;" d="M262.095,338.47c-11.791-0.471-30.917-3.024-47.136-4.625l0,0c0,0,4.013,2.913,10.216,4.613
							c5.343,1.467,26.816,1.716,36.92,1.831"/>
						<g>
							<path style="fill:#5D5D5D;" d="M210.023,337.121c0.025,0.008,0.057,0.015,0.083,0.022c-0.548-0.273-0.985-0.562-1.366-0.854
								C208.991,336.633,209.339,336.894,210.023,337.121z"/>
						</g>
						<path style="fill:#767676;" d="M234.346,341.813c-0.569,0.018-1.122,0.027-1.645,0.027c-5.834,0-8.996-1.052-11.611-1.92
							c-1.601-0.535-2.984-0.995-4.707-1.168c-2.762-0.275-4.821-0.886-6.275-1.609c-0.026-0.007-0.058-0.014-0.083-0.022
							c-0.684-0.228-1.032-0.488-1.283-0.832c-0.634-0.487-1.07-0.984-1.274-1.44c-0.503-1.113-1.688-2.055-2.112-2.368
							c-0.546-0.079-1.082-0.158-1.608-0.238c0.298,0.299,1.004,0.975,2.25,2.049c0.72,0.621,0.997,1.2,1.266,1.758
							c0.396,0.82,0.804,1.669,2.394,2.193c1.089,0.359,2.71,0.609,4.424,0.877c2.072,0.325,4.213,0.657,5.334,1.176
							c0.69,0.318,2.348,0.996,4.909,1.543l10.025,0.025L234.346,341.813z"/>
						<path style="fill:#3F3F3F;" d="M206.767,333.397c0.903,0.782,1.268,1.535,1.557,2.141c0.142,0.289,0.261,0.536,0.417,0.752
							c0.381,0.292,0.818,0.58,1.366,0.854c1,0.315,2.529,0.558,4.154,0.811c2.152,0.336,4.376,0.681,5.648,1.269
							c2.688,1.244,7.879,2.488,14.419,2.205l0.018,0.385c0.439-0.014,0.886-0.03,1.355-0.057l-0.033-0.59
							c-7.701,0.423-11.253-0.764-14.391-1.809c-1.567-0.52-3.049-1.014-4.836-1.192c-4.942-0.495-7.799-2.145-8.438-3.557
							c-0.354-0.783-1.11-1.489-1.651-1.981c-0.228-0.035-0.326-0.049-0.552-0.082C206.076,332.794,206.394,333.074,206.767,333.397z
							"/>
						<path style="fill:#3F3F3F;" d="M219.909,339.223c-1.273-0.588-3.496-0.933-5.648-1.269c-1.625-0.254-3.154-0.496-4.154-0.811
							c1.454,0.724,3.514,1.334,6.275,1.609c1.723,0.173,3.107,0.633,4.707,1.168c2.615,0.868,5.777,1.92,11.611,1.92
							c0.523,0,1.076-0.01,1.645-0.027l-0.018-0.385C227.788,341.711,222.597,340.467,219.909,339.223z"/>
						<path style="fill:#3F3F3F;" d="M206.767,333.397c-0.372-0.322-0.69-0.603-0.967-0.852c-0.149-0.023-0.301-0.043-0.446-0.064
							c0.425,0.313,1.609,1.255,2.112,2.368c0.204,0.456,0.641,0.953,1.274,1.44c-0.156-0.216-0.275-0.463-0.417-0.752
							C208.034,334.932,207.67,334.179,206.767,333.397z"/>
						<path style="fill:#4A4A4A;" d="M198.289,331.428c0,0-4.222,0.208-4.56,1.117c-0.16,0.426-2.486,3.416-2.486,3.416l3.849,0.328
							l2.192-2.43l3.579-0.24l1.281-1.75L198.289,331.428z"/>
						<path style="fill:#4A4A4A;" d="M202.818,332.545"/>
						<path style="fill:#4A4A4A;" d="M201.31,334.385c0,0-3.282,0.459-3.297,0.604c-0.014,0.147-1.838,2.153-1.838,2.153
							l-3.201,0.537l1.116,1.327l2.085-1.327l1.838-1.391l1.858-1.011l2.273-0.063L201.31,334.385z"/>
						<g>
							<path style="fill:#5D5D5D;" d="M262.095,341.935l82.316-0.165c-0.197-2.559-1.413-3.625-2.896-4.922
								c-1.576-1.378-4.869-3.108-4.869-7.019c0,0-51.942,8.439-74.551,8.647"/>
						</g>
						<path style="fill:#4A4A4A;" d="M262.096,338.475c11.829-0.402,31.109-2.795,47.441-4.594l0,0c0,0-4.014,2.914-10.217,4.613
							c-5.344,1.467-27.123,1.686-37.225,1.8"/>
						<g>
							<path style="fill:#5D5D5D;" d="M314.472,337.157c-0.024,0.007-0.059,0.015-0.084,0.023c0.549-0.273,0.986-0.562,1.366-0.855
								C315.505,336.669,315.158,336.931,314.472,337.157z"/>
						</g>
						<path style="fill:#767676;" d="M290.147,341.85c0.569,0.019,1.123,0.028,1.646,0.028c5.834,0,8.997-1.052,11.61-1.923
							c1.602-0.533,2.987-0.994,4.71-1.164c2.759-0.279,4.818-0.89,6.273-1.61c0.025-0.009,0.06-0.017,0.084-0.023
							c0.687-0.227,1.033-0.488,1.282-0.832c0.634-0.486,1.07-0.984,1.275-1.44c0.504-1.111,1.686-2.053,2.112-2.367
							c0.546-0.08,1.083-0.159,1.609-0.238c-0.299,0.299-1.007,0.975-2.25,2.049c-0.719,0.619-0.999,1.2-1.267,1.759
							c-0.395,0.82-0.803,1.669-2.395,2.19c-1.089,0.361-2.708,0.613-4.424,0.881c-2.071,0.322-4.211,0.655-5.334,1.176
							c-0.69,0.316-2.346,0.995-4.909,1.542l-10.024,0.025V341.85z"/>
						<path style="fill:#3F3F3F;" d="M317.728,333.434c-0.904,0.781-1.268,1.535-1.559,2.14c-0.142,0.291-0.261,0.538-0.416,0.752
							c-0.38,0.294-0.817,0.582-1.366,0.855c-1,0.315-2.528,0.557-4.155,0.808c-2.149,0.338-4.375,0.685-5.647,1.27
							c-2.688,1.245-7.88,2.49-14.42,2.206l-0.018,0.386c-0.438-0.014-0.885-0.031-1.352-0.057l0.031-0.59
							c7.7,0.422,11.255-0.764,14.392-1.809c1.566-0.522,3.048-1.014,4.835-1.193c4.943-0.494,7.798-2.145,8.438-3.558
							c0.353-0.782,1.181-1.498,1.721-1.991c0.23-0.032,0.258-0.039,0.483-0.069C318.418,332.832,318.099,333.112,317.728,333.434z"
							/>
						<path style="fill:#3F3F3F;" d="M304.586,339.258c1.272-0.584,3.497-0.932,5.647-1.27c1.627-0.251,3.155-0.492,4.155-0.808
							c-1.455,0.721-3.515,1.331-6.273,1.61c-1.723,0.17-3.108,0.631-4.71,1.164c-2.613,0.871-5.776,1.923-11.61,1.923
							c-0.523,0-1.077-0.01-1.646-0.028l0.018-0.386C296.706,341.748,301.897,340.503,304.586,339.258z"/>
						<path style="fill:#3F3F3F;" d="M317.728,333.434c0.37-0.321,0.69-0.602,0.967-0.851c0.149-0.023,0.3-0.044,0.446-0.065
							c-0.426,0.314-1.608,1.256-2.112,2.367c-0.205,0.456-0.642,0.954-1.275,1.44c0.155-0.214,0.274-0.461,0.416-0.752
							C316.461,334.969,316.824,334.215,317.728,333.434z"/>
						<path style="fill:#4A4A4A;" d="M326.204,331.465c0,0,4.223,0.205,4.564,1.118c0.158,0.425,2.482,3.414,2.482,3.414
							l-3.849,0.328l-2.192-2.431l-3.579-0.24l-1.28-1.748L326.204,331.465z"/>
						<path style="fill:#4A4A4A;" d="M321.677,332.583"/>
						<path style="fill:#4A4A4A;" d="M323.184,334.421c0,0,3.283,0.459,3.298,0.606c0.015,0.146,1.84,2.153,1.84,2.153l3.199,0.537
							l-1.117,1.325l-2.082-1.325l-1.84-1.393l-1.856-1.011l-2.274-0.062L323.184,334.421z"/>
						<path style="fill:#5D5D5D;" d="M247.746,338.358c-0.124,0.161-0.421,0.378-0.559,0.573c-0.155,0.199-0.236,0.391-0.282,0.506
							c0.119-0.068,0.253-0.204,0.434-0.355c0.095-0.075,0.195-0.156,0.301-0.241c0.108-0.077,0.253-0.159,0.367-0.345
							c0.105-0.19,0.032-0.447-0.027-0.549c-0.069-0.117-0.04-0.163-0.005-0.27c0.1-0.19,0.253-0.316,0.335-0.417
							c-0.122,0.025-0.33,0.087-0.513,0.302c-0.04,0.055-0.076,0.138-0.108,0.215c-0.005,0.094,0.006,0.198,0.035,0.265
							C247.779,338.199,247.786,338.256,247.746,338.358z"/>
						<path style="fill:#5D5D5D;" d="M250.525,338.631c-0.092,0.148-0.29,0.264-0.43,0.406c-0.154,0.133-0.197,0.327-0.18,0.42
							c0.077-0.08,0.151-0.177,0.311-0.25c0.145-0.092,0.373-0.164,0.546-0.416c0.164-0.281,0.089-0.541,0.066-0.711
							c-0.043-0.176-0.032-0.305-0.055-0.414c-0.058,0.071-0.15,0.226-0.158,0.423C250.603,338.277,250.614,338.491,250.525,338.631z
							"/>
						<path style="fill:#5D5D5D;" d="M254.065,338.861c-0.217,0.278-0.515,0.634-0.457,0.836c0.126-0.158,0.401-0.281,0.708-0.681
							c0.233-0.488,0.053-0.857-0.008-1.018C254.21,338.154,254.22,338.573,254.065,338.861z"/>
						<path style="fill:#5D5D5D;" d="M257.396,338.893c-0.041,0.203-0.062,0.371-0.107,0.508c-0.049,0.139-0.069,0.322-0.008,0.389
							c0.032-0.098,0.099-0.154,0.201-0.296c0.103-0.142,0.165-0.348,0.203-0.542c0.092-0.397,0.041-0.8-0.071-0.936
							C257.551,338.195,257.482,338.492,257.396,338.893z"/>
						<path style="fill:#5D5D5D;" d="M260.03,338.982c-0.057,0.168-0.158,0.365-0.214,0.523c-0.043,0.178-0.042,0.33-0.023,0.412
							c0.07-0.078,0.138-0.189,0.215-0.32c0.102-0.135,0.216-0.278,0.301-0.518c0.149-0.489-0.026-0.844-0.092-1.008
							C260.117,338.236,260.149,338.643,260.03,338.982z"/>
						<path style="fill:#5D5D5D;" d="M263.012,339.14c-0.07,0.096-0.208,0.227-0.27,0.366c-0.09,0.141-0.027,0.329,0.059,0.338
							c-0.031-0.183,0.186-0.216,0.458-0.543c0.185-0.436,0.016-0.658,0.113-0.787C263.143,338.492,263.097,338.969,263.012,339.14z"
							/>
						<path style="fill:#5D5D5D;" d="M265.661,339.037c-0.404,0.334-0.67,0.686-0.885,0.641c0.063,0.12,0.301,0.097,0.485,0
							c0.196-0.093,0.393-0.252,0.588-0.414c0.04-0.03,0.076-0.063,0.113-0.092l-0.015,0.009c0.102-0.065,0.197-0.127,0.293-0.188
							c0.075-0.088,0.139-0.178,0.19-0.261c0.086-0.184,0.09-0.303,0.118-0.402c-0.199,0.126-0.297,0.453-0.73,0.589l-0.005,0.002
							l-0.008,0.007C265.763,338.96,265.702,338.998,265.661,339.037z"/>
						<path style="fill:#5D5D5D;" d="M269.288,338.774c-0.359,0.419-0.382,0.77-0.543,0.903c0.243,0.037,0.505-0.414,0.745-0.688
							c0.132-0.121,0.382-0.271,0.436-0.49c0.067-0.21-0.001-0.352-0.019-0.447c-0.063,0.075-0.085,0.242-0.177,0.357
							C269.66,338.539,269.495,338.595,269.288,338.774z"/>
						<path style="fill:#5D5D5D;" d="M273.514,338.428c-0.08,0.261-0.181,0.521-0.175,0.73c0.012,0.213,0.04,0.381,0.077,0.482
							c0.05-0.102,0.098-0.261,0.134-0.454c0.047-0.194,0.158-0.386,0.227-0.626c0.226-0.563,0.125-0.987,0.139-1.208
							C273.744,337.506,273.683,338.019,273.514,338.428z"/>
						<path style="fill:#5D5D5D;" d="M277.378,338.19c-0.125,0.449-0.272,0.851-0.27,1.063c0.153-0.137,0.415-0.483,0.555-0.987
							c0.152-0.518-0.055-1.002-0.224-1.115C277.452,337.367,277.504,337.739,277.378,338.19z"/>
						<path style="fill:#5D5D5D;" d="M221.747,332.117c1.631-1.428,3.252-2.331,3.968-2.789c-0.787,0.296-2.508,1.117-4.162,2.565
							c-0.773,0.736-1.651,1.395-1.896,2.275c-0.141,0.408-0.201,0.785-0.316,1.083c-0.104,0.309-0.271,0.518-0.416,0.675
							c0.172-0.119,0.384-0.32,0.527-0.628c0.153-0.302,0.245-0.677,0.406-1.056C220.117,333.455,220.962,332.861,221.747,332.117z"
							/>
						<path style="fill:#5D5D5D;" d="M225.493,333.752c0.508-0.805,1.188-1.41,1.752-1.904c0.574-0.489,1.05-0.873,1.325-1.142
							c-0.328,0.198-0.845,0.521-1.457,0.977c-0.605,0.461-1.328,1.058-1.87,1.913c-0.551,0.872-0.612,1.83-0.974,2.459
							c-0.35,0.648-0.942,0.906-1.262,1.101c0.345-0.115,1.003-0.304,1.444-0.992C224.891,335.491,224.984,334.539,225.493,333.752z"
							/>
						<path style="fill:#5D5D5D;" d="M229.915,334.979c0.821-1.178,1.854-1.982,2.2-2.45c-0.462,0.342-1.564,1.031-2.448,2.288
							c-0.221,0.319-0.394,0.634-0.536,0.933c-0.15,0.297-0.317,0.555-0.472,0.789c-0.33,0.459-0.703,0.715-0.925,0.913
							c0.258-0.122,0.699-0.327,1.093-0.781c0.183-0.226,0.378-0.493,0.544-0.787C229.529,335.578,229.71,335.272,229.915,334.979z"
							/>
						<path style="fill:#5D5D5D;" d="M233.315,336.484c0.266-0.616,0.541-1.164,0.813-1.604c0.268-0.437,0.56-0.739,0.695-0.975
							c-0.193,0.172-0.547,0.431-0.871,0.855c-0.326,0.423-0.638,0.98-0.907,1.605c-0.279,0.624-0.442,1.219-0.814,1.566
							c-0.353,0.365-0.656,0.681-0.806,0.897c0.217-0.159,0.548-0.401,0.957-0.747C232.828,337.737,233.052,337.078,233.315,336.484z
							"/>
						<path style="fill:#5D5D5D;" d="M237.609,336.834c0.319-0.754,0.801-1.362,0.904-1.695c-0.245,0.239-0.815,0.742-1.179,1.588
							c-0.066,0.224-0.158,0.425-0.157,0.645c0.002,0.193,0.004,0.375,0.005,0.546c-0.017,0.3-0.231,0.485-0.344,0.617
							c0.148-0.056,0.462-0.19,0.553-0.587C237.442,337.569,237.434,337.218,237.609,336.834z"/>
						<path style="fill:#5D5D5D;" d="M241.362,337.215c0.348-0.517,0.62-0.99,0.696-1.24c-0.218,0.146-0.586,0.547-0.946,1.082
							c-0.145,0.291-0.311,0.548-0.362,0.801c-0.053,0.253-0.075,0.454-0.07,0.579C240.836,338.208,241.03,337.74,241.362,337.215z"
							/>
						<path style="fill:#5D5D5D;" d="M305.792,330.447c-0.391-2.336-1.039-4.283-1.314-5.155c0.109,0.929,0.634,2.875,1.024,5.211
							c0.499,2.297,0.812,4.353,0.257,5.177c0.331-0.346,0.513-1.128,0.483-2.05C306.237,332.694,306.009,331.605,305.792,330.447z"
							/>
						<path style="fill:#5D5D5D;" d="M302.688,332.385c-0.142-1.075-0.339-2.057-0.545-2.859c-0.188-0.81-0.303-1.463-0.421-1.869
							c0.03,0.413,0.074,1.088,0.213,1.91c0.154,0.818,0.32,1.796,0.458,2.845c0.008,0.528,0.018,1.036,0.024,1.517
							c-0.029,0.483-0.058,0.938-0.082,1.352c-0.078,0.816-0.153,1.494-0.416,1.828c0.337-0.284,0.5-0.987,0.627-1.805
							c0.063-0.412,0.105-0.873,0.145-1.354C302.703,333.459,302.69,332.931,302.688,332.385z"/>
						<path style="fill:#5D5D5D;" d="M299.446,333.685c-0.11-2.087-0.211-3.838-0.333-4.651c-0.052,0.797-0.071,2.602,0.037,4.659
							c0.013,0.511,0.082,1.024,0.054,1.472c-0.033,0.449-0.149,0.877-0.232,1.275c-0.193,0.78-0.195,1.479-0.006,1.85
							c-0.104-0.401-0.026-1.034,0.214-1.802c0.106-0.385,0.244-0.811,0.298-1.301C299.522,334.696,299.459,334.209,299.446,333.685z
							"/>
						<path style="fill:#5D5D5D;" d="M295.303,334.965c-0.077-1.687,0.002-3.098-0.077-3.765c-0.094,0.635-0.297,2.096-0.219,3.765
							c0.163,1.67-0.438,3.027-0.324,3.717c0.08-0.323,0.189-0.822,0.388-1.443C295.286,336.619,295.343,335.789,295.303,334.965z"/>
						<path style="fill:#5D5D5D;" d="M291.606,336.491c0.144-1.351-0.053-2.465-0.123-2.978c-0.102,0.508-0.031,1.662-0.169,2.935
							c-0.1,0.3-0.095,0.682-0.255,0.879c-0.078,0.113-0.192,0.214-0.289,0.351c-0.101,0.149-0.113,0.341-0.075,0.485l-0.002-0.009
							c0.118,0.354,0.431,0.325,0.544,0.419c0.142,0.077-0.008,0.258-0.051,0.354c0.047-0.047,0.096-0.097,0.148-0.153
							c0.044-0.07,0.074-0.197-0.025-0.285c-0.157-0.136-0.402-0.207-0.416-0.361v-0.003l-0.001-0.006
							c-0.05-0.229,0.138-0.357,0.38-0.627c0.127-0.14,0.174-0.322,0.207-0.482C291.523,336.841,291.564,336.666,291.606,336.491z"/>
						<path style="fill:#5D5D5D;" d="M288.327,337.085c0.154-0.572,0.102-1.092,0.098-1.512c-0.024-0.426,0-0.756,0.004-0.977
							c-0.089,0.195-0.189,0.54-0.217,0.97c-0.044,0.425-0.032,0.941-0.167,1.435c-0.108,0.515-0.56,0.727-0.896,1.034
							c-0.374,0.313-0.35,0.754-0.293,0.943c0.033-0.217,0.083-0.559,0.431-0.779C287.585,337.986,288.19,337.709,288.327,337.085z"
							/>
						<path style="fill:#5D5D5D;" d="M284.248,337.418c0.192-0.403,0.414-0.758,0.483-1.102c0.068-0.344,0.105-0.617,0.106-0.785
							c-0.088,0.157-0.195,0.406-0.308,0.715c-0.107,0.308-0.353,0.635-0.532,1.015c-0.251,0.346-0.455,0.687-0.658,0.947
							c-0.215,0.252-0.379,0.47-0.471,0.623c0.146-0.088,0.366-0.254,0.629-0.479C283.749,338.115,283.988,337.777,284.248,337.418z"
							/>
						<path style="fill:#5D5D5D;" d="M281.405,337.664c-0.133-0.543-0.194-0.908-0.209-1.148c-0.045,0.087-0.163,0.252-0.157,0.471
							c-0.026,0.225,0.037,0.477,0.076,0.721c0.133,0.488-0.347,0.619-0.51,0.778c0.102-0.004,0.284,0.013,0.491-0.09
							C281.341,338.311,281.469,337.941,281.405,337.664z"/>
					</g>
				</g>
				<rect x="24.524" y="172.982" style="fill:none;" width="178.743" height="170.594"/>
			</g>
			<g>
				<rect x="150.732" y="97.301" style="fill:none;" width="218.661" height="45.237"/>
				
					<text transform="matrix(1 0 0 1 193.4717 136.166)" style="fill:#F1F1; font-family:'Gilroy-ExtraBold'; font-size:54.7407px;">Oops!</text>
			</g>
			<g>
				<g>
					<rect x="66.843" y="375.941" style="fill:none;" width="86.042" height="19.326"/>
					
				</g>
				<g>
					<rect x="161.88" y="380.888" style="fill:none;" width="275.276" height="16.717"/>
				</g>
			</g>
		</g>
	</g>
</svg>